<?xml version="1.0" encoding="UTF-8" standalone="no"?>
<!-- Created with Inkscape (http://www.inkscape.org/) -->

<svg
   xmlns:dc="http://purl.org/dc/elements/1.1/"
   xmlns:cc="http://creativecommons.org/ns#"
   xmlns:rdf="http://www.w3.org/1999/02/22-rdf-syntax-ns#"
   xmlns:svg="http://www.w3.org/2000/svg"
   xmlns="http://www.w3.org/2000/svg"
   xmlns:sodipodi="http://sodipodi.sourceforge.net/DTD/sodipodi-0.dtd"
   xmlns:inkscape="http://www.inkscape.org/namespaces/inkscape"
   width="75mm"
   height="40mm"
   viewBox="0 -177.16535 265.74801 0"
   id="svg10502"
   version="1.1"
   inkscape:version="0.91 r13725"
   sodipodi:docname="readtime.svg">
  <defs
     id="defs10504">
    <clipPath
       clipPathUnits="userSpaceOnUse"
       id="clipPath9060">
      <path
         d="m 528.169,730.063 -175.753,0 0,-77.121 175.753,0 0,77.121 z"
         id="path9062"
         inkscape:connector-curvature="0" />
    </clipPath>
    <clipPath
       clipPathUnits="userSpaceOnUse"
       id="clipPath9046">
      <path
         d="m 528.169,730.063 -175.753,0 0,-77.121 175.753,0 0,77.121 z"
         id="path9048"
         inkscape:connector-curvature="0" />
    </clipPath>
    <clipPath
       clipPathUnits="userSpaceOnUse"
       id="clipPath8990">
      <path
         d="m 528.169,730.063 -175.753,0 0,-77.121 175.753,0 0,77.121 z"
         id="path8992"
         inkscape:connector-curvature="0" />
    </clipPath>
    <clipPath
       clipPathUnits="userSpaceOnUse"
       id="clipPath8926">
      <path
         d="m 528.169,730.063 -175.753,0 0,-77.121 175.753,0 0,77.121 z"
         id="path8928"
         inkscape:connector-curvature="0" />
    </clipPath>
    <clipPath
       clipPathUnits="userSpaceOnUse"
       id="clipPath8826">
      <path
         d="m 528.169,730.063 -175.753,0 0,-77.121 175.753,0 0,77.121 z"
         id="path8828"
         inkscape:connector-curvature="0" />
    </clipPath>
    <clipPath
       clipPathUnits="userSpaceOnUse"
       id="clipPath8770">
      <path
         d="m 528.169,730.063 -175.753,0 0,-77.121 175.753,0 0,77.121 z"
         id="path8772"
         inkscape:connector-curvature="0" />
    </clipPath>
    <clipPath
       clipPathUnits="userSpaceOnUse"
       id="clipPath13874">
      <path
         d="m 528.169,580.651 -175.753,0 0,-77.121 175.753,0 0,77.121 z"
         id="path13876"
         inkscape:connector-curvature="0" />
    </clipPath>
    <clipPath
       clipPathUnits="userSpaceOnUse"
       id="clipPath13860">
      <path
         d="m 528.169,580.651 -175.753,0 0,-77.121 175.753,0 0,77.121 z"
         id="path13862"
         inkscape:connector-curvature="0" />
    </clipPath>
    <clipPath
       clipPathUnits="userSpaceOnUse"
       id="clipPath13804">
      <path
         d="m 528.169,580.651 -175.753,0 0,-77.121 175.753,0 0,77.121 z"
         id="path13806"
         inkscape:connector-curvature="0" />
    </clipPath>
    <clipPath
       clipPathUnits="userSpaceOnUse"
       id="clipPath13740">
      <path
         d="m 528.169,580.651 -175.753,0 0,-77.121 175.753,0 0,77.121 z"
         id="path13742"
         inkscape:connector-curvature="0" />
    </clipPath>
    <clipPath
       clipPathUnits="userSpaceOnUse"
       id="clipPath13640">
      <path
         d="m 528.169,580.651 -175.753,0 0,-77.121 175.753,0 0,77.121 z"
         id="path13642"
         inkscape:connector-curvature="0" />
    </clipPath>
    <clipPath
       clipPathUnits="userSpaceOnUse"
       id="clipPath13584">
      <path
         d="m 528.169,580.651 -175.753,0 0,-77.121 175.753,0 0,77.121 z"
         id="path13586"
         inkscape:connector-curvature="0" />
    </clipPath>
    <clipPath
       clipPathUnits="userSpaceOnUse"
       id="clipPath15924">
      <path
         d="m 263.434,604.835 -171.205,0 0,-74.649 171.205,0 0,74.649 z"
         id="path15926"
         inkscape:connector-curvature="0" />
    </clipPath>
    <clipPath
       clipPathUnits="userSpaceOnUse"
       id="clipPath15872">
      <path
         d="m 263.434,604.835 -171.205,0 0,-74.649 171.205,0 0,74.649 z"
         id="path15874"
         inkscape:connector-curvature="0" />
    </clipPath>
  </defs>
  <sodipodi:namedview
     id="base"
     pagecolor="#ffffff"
     bordercolor="#666666"
     borderopacity="1.0"
     inkscape:pageopacity="0.0"
     inkscape:pageshadow="2"
     inkscape:zoom="0.35"
     inkscape:cx="375"
     inkscape:cy="520"
     inkscape:document-units="px"
     inkscape:current-layer="layer1"
     showgrid="false"
     inkscape:window-width="1280"
     inkscape:window-height="738"
     inkscape:window-x="-8"
     inkscape:window-y="-8"
     inkscape:window-maximized="1" />
  <metadata
     id="metadata10507">
    <rdf:RDF>
      <cc:Work
         rdf:about="">
        <dc:format>image/svg+xml</dc:format>
        <dc:type
           rdf:resource="http://purl.org/dc/dcmitype/StillImage" />
        <dc:title></dc:title>
      </cc:Work>
    </rdf:RDF>
  </metadata>
  <g
     inkscape:label="Layer 1"
     inkscape:groupmode="layer"
     id="layer1"
     transform="translate(0,-1187.7953)">
    <g
       id="g15656"
       transform="matrix(1.25,0,0,-1.25,35.169123,1300.2181)">
      <path
         d="m 0,0 0,74.638 171.194,0 L 171.194,0 0,0"
         style="fill:none;stroke:#ffffff;stroke-width:0.063;stroke-linecap:butt;stroke-linejoin:round;stroke-miterlimit:10;stroke-dasharray:none;stroke-opacity:1"
         id="path15658"
         inkscape:connector-curvature="0" />
    </g>
    <g
       id="g15660"
       transform="matrix(1.25,0,0,-1.25,35.169113,1300.2181)">
      <path
         d="m 0,0 0,74.638 m 0,0 0,0 M 19.017,0 l 0,74.638 m 0,0 0,0 M 38.034,0 l 0,74.638 m 0,0 0,0 M 57.061,0 l 0,74.638 m 0,0 0,0 M 76.078,0 l 0,74.638 m 0,0 0,0 M 95.106,0 l 0,74.638 m 0,0 0,0 M 114.123,0 l 0,74.638 m 0,0 0,0 M 133.149,0 l 0,74.638 m 0,0 0,0 M 152.167,0 l 0,74.638 m 0,0 0,0 M 171.194,0 l 0,74.638 m 0,0 0,0 M 0,0 171.194,0 m 0,0 0,0 M 0,24.879 l 171.194,0 m 0,0 0,0 M 0,49.769 l 171.194,0 m 0,0 0,0 M 0,74.638 l 171.194,0 m 0,0 0,0"
         style="fill:none;stroke:#231f20;stroke-width:0.042;stroke-linecap:butt;stroke-linejoin:round;stroke-miterlimit:10;stroke-dasharray:0.751, 0.751;stroke-dashoffset:0;stroke-opacity:1"
         id="path15662"
         inkscape:connector-curvature="0" />
    </g>
    <g
       id="g15664"
       transform="matrix(1.25,0,0,-1.25,35.169123,1300.2181)">
      <path
         d="M 0,0 171.194,0"
         style="fill:none;stroke:#231f20;stroke-width:0.063;stroke-linecap:butt;stroke-linejoin:round;stroke-miterlimit:10;stroke-dasharray:none;stroke-opacity:1"
         id="path15666"
         inkscape:connector-curvature="0" />
    </g>
    <g
       id="g15668"
       transform="matrix(1.25,0,0,-1.25,35.169123,1206.9206)">
      <path
         d="M 0,0 171.194,0"
         style="fill:none;stroke:#231f20;stroke-width:0.063;stroke-linecap:butt;stroke-linejoin:round;stroke-miterlimit:10;stroke-dasharray:none;stroke-opacity:1"
         id="path15670"
         inkscape:connector-curvature="0" />
    </g>
    <g
       id="g15672"
       transform="matrix(1.25,0,0,-1.25,35.169123,1300.2181)">
      <path
         d="M 0,0 0,74.638"
         style="fill:none;stroke:#231f20;stroke-width:0.063;stroke-linecap:butt;stroke-linejoin:round;stroke-miterlimit:10;stroke-dasharray:none;stroke-opacity:1"
         id="path15674"
         inkscape:connector-curvature="0" />
    </g>
    <g
       id="g15676"
       transform="matrix(1.25,0,0,-1.25,249.1616,1300.2181)">
      <path
         d="M 0,0 0,74.638"
         style="fill:none;stroke:#231f20;stroke-width:0.063;stroke-linecap:butt;stroke-linejoin:round;stroke-miterlimit:10;stroke-dasharray:none;stroke-opacity:1"
         id="path15678"
         inkscape:connector-curvature="0" />
    </g>
    <g
       id="g15680"
       transform="matrix(1.25,0,0,-1.25,35.169123,1300.2181)">
      <path
         d="M 0,0 171.194,0"
         style="fill:none;stroke:#231f20;stroke-width:0.063;stroke-linecap:butt;stroke-linejoin:round;stroke-miterlimit:10;stroke-dasharray:none;stroke-opacity:1"
         id="path15682"
         inkscape:connector-curvature="0" />
    </g>
    <g
       id="g15684"
       transform="matrix(1.25,0,0,-1.25,35.169123,1300.2181)">
      <path
         d="M 0,0 0,74.638"
         style="fill:none;stroke:#231f20;stroke-width:0.063;stroke-linecap:butt;stroke-linejoin:round;stroke-miterlimit:10;stroke-dasharray:none;stroke-opacity:1"
         id="path15686"
         inkscape:connector-curvature="0" />
    </g>
    <g
       id="g15688"
       transform="matrix(1.25,0,0,-1.25,35.169123,1300.2181)">
      <path
         d="M 0,0 0,1.721"
         style="fill:none;stroke:#231f20;stroke-width:0.063;stroke-linecap:butt;stroke-linejoin:round;stroke-miterlimit:10;stroke-dasharray:none;stroke-opacity:1"
         id="path15690"
         inkscape:connector-curvature="0" />
    </g>
    <g
       id="g15692"
       transform="matrix(1.25,0,0,-1.25,35.169123,1206.9206)">
      <path
         d="M 0,0 0,-1.711"
         style="fill:none;stroke:#231f20;stroke-width:0.063;stroke-linecap:butt;stroke-linejoin:round;stroke-miterlimit:10;stroke-dasharray:none;stroke-opacity:1"
         id="path15694"
         inkscape:connector-curvature="0" />
    </g>
    <text
       y="1307.208"
       x="31.257612"
       style="font-variant:normal;font-weight:normal;font-stretch:normal;font-size:7.04137516px;font-family:Helvetica;-inkscape-font-specification:Helvetica;writing-mode:lr-tb;fill:#231f20;fill-opacity:1;fill-rule:nonzero;stroke:none"
       id="text15696">
      <tspan
         x="31.257612 35.171211"
         y="1307.208"
         sodipodi:role="line"
         id="tspan15698">10</tspan>
    </text>
    <g
       id="g15700"
       transform="matrix(1.25,0,0,-1.25,58.940363,1300.2181)">
      <path
         d="M 0,0 0,1.721"
         style="fill:none;stroke:#231f20;stroke-width:0.063;stroke-linecap:butt;stroke-linejoin:round;stroke-miterlimit:10;stroke-dasharray:none;stroke-opacity:1"
         id="path15702"
         inkscape:connector-curvature="0" />
    </g>
    <g
       id="g15704"
       transform="matrix(1.25,0,0,-1.25,58.940363,1206.9206)">
      <path
         d="M 0,0 0,-1.711"
         style="fill:none;stroke:#231f20;stroke-width:0.063;stroke-linecap:butt;stroke-linejoin:round;stroke-miterlimit:10;stroke-dasharray:none;stroke-opacity:1"
         id="path15706"
         inkscape:connector-curvature="0" />
    </g>
    <text
       y="1307.208"
       x="55.029114"
       style="font-variant:normal;font-weight:normal;font-stretch:normal;font-size:7.04137516px;font-family:Helvetica;-inkscape-font-specification:Helvetica;writing-mode:lr-tb;fill:#231f20;fill-opacity:1;fill-rule:nonzero;stroke:none"
       id="text15708">
      <tspan
         x="55.029114 58.942707"
         y="1307.208"
         sodipodi:role="line"
         id="tspan15710">20</tspan>
    </text>
    <g
       id="g15712"
       transform="matrix(1.25,0,0,-1.25,82.711613,1300.2181)">
      <path
         d="M 0,0 0,1.721"
         style="fill:none;stroke:#231f20;stroke-width:0.063;stroke-linecap:butt;stroke-linejoin:round;stroke-miterlimit:10;stroke-dasharray:none;stroke-opacity:1"
         id="path15714"
         inkscape:connector-curvature="0" />
    </g>
    <g
       id="g15716"
       transform="matrix(1.25,0,0,-1.25,82.711613,1206.9206)">
      <path
         d="M 0,0 0,-1.711"
         style="fill:none;stroke:#231f20;stroke-width:0.063;stroke-linecap:butt;stroke-linejoin:round;stroke-miterlimit:10;stroke-dasharray:none;stroke-opacity:1"
         id="path15718"
         inkscape:connector-curvature="0" />
    </g>
    <text
       y="1307.208"
       x="78.800362"
       style="font-variant:normal;font-weight:normal;font-stretch:normal;font-size:7.04137516px;font-family:Helvetica;-inkscape-font-specification:Helvetica;writing-mode:lr-tb;fill:#231f20;fill-opacity:1;fill-rule:nonzero;stroke:none"
       id="text15720">
      <tspan
         x="78.800362 82.713959"
         y="1307.208"
         sodipodi:role="line"
         id="tspan15722">30</tspan>
    </text>
    <g
       id="g15724"
       transform="matrix(1.25,0,0,-1.25,106.49535,1300.2181)">
      <path
         d="M 0,0 0,1.721"
         style="fill:none;stroke:#231f20;stroke-width:0.063;stroke-linecap:butt;stroke-linejoin:round;stroke-miterlimit:10;stroke-dasharray:none;stroke-opacity:1"
         id="path15726"
         inkscape:connector-curvature="0" />
    </g>
    <g
       id="g15728"
       transform="matrix(1.25,0,0,-1.25,106.49535,1206.9206)">
      <path
         d="M 0,0 0,-1.711"
         style="fill:none;stroke:#231f20;stroke-width:0.063;stroke-linecap:butt;stroke-linejoin:round;stroke-miterlimit:10;stroke-dasharray:none;stroke-opacity:1"
         id="path15730"
         inkscape:connector-curvature="0" />
    </g>
    <text
       y="1307.208"
       x="102.58411"
       style="font-variant:normal;font-weight:normal;font-stretch:normal;font-size:7.04137516px;font-family:Helvetica;-inkscape-font-specification:Helvetica;writing-mode:lr-tb;fill:#231f20;fill-opacity:1;fill-rule:nonzero;stroke:none"
       id="text15732">
      <tspan
         x="102.58411 106.49771"
         y="1307.208"
         sodipodi:role="line"
         id="tspan15734">40</tspan>
    </text>
    <g
       id="g15736"
       transform="matrix(1.25,0,0,-1.25,130.26662,1300.2181)">
      <path
         d="M 0,0 0,1.721"
         style="fill:none;stroke:#231f20;stroke-width:0.063;stroke-linecap:butt;stroke-linejoin:round;stroke-miterlimit:10;stroke-dasharray:none;stroke-opacity:1"
         id="path15738"
         inkscape:connector-curvature="0" />
    </g>
    <g
       id="g15740"
       transform="matrix(1.25,0,0,-1.25,130.26662,1206.9206)">
      <path
         d="M 0,0 0,-1.711"
         style="fill:none;stroke:#231f20;stroke-width:0.063;stroke-linecap:butt;stroke-linejoin:round;stroke-miterlimit:10;stroke-dasharray:none;stroke-opacity:1"
         id="path15742"
         inkscape:connector-curvature="0" />
    </g>
    <text
       y="1307.208"
       x="126.35536"
       style="font-variant:normal;font-weight:normal;font-stretch:normal;font-size:7.04137516px;font-family:Helvetica;-inkscape-font-specification:Helvetica;writing-mode:lr-tb;fill:#231f20;fill-opacity:1;fill-rule:nonzero;stroke:none"
       id="text15744">
      <tspan
         x="126.35536 130.26897"
         y="1307.208"
         sodipodi:role="line"
         id="tspan15746">50</tspan>
    </text>
    <g
       id="g15748"
       transform="matrix(1.25,0,0,-1.25,154.05161,1300.2181)">
      <path
         d="M 0,0 0,1.721"
         style="fill:none;stroke:#231f20;stroke-width:0.063;stroke-linecap:butt;stroke-linejoin:round;stroke-miterlimit:10;stroke-dasharray:none;stroke-opacity:1"
         id="path15750"
         inkscape:connector-curvature="0" />
    </g>
    <g
       id="g15752"
       transform="matrix(1.25,0,0,-1.25,154.05161,1206.9206)">
      <path
         d="M 0,0 0,-1.711"
         style="fill:none;stroke:#231f20;stroke-width:0.063;stroke-linecap:butt;stroke-linejoin:round;stroke-miterlimit:10;stroke-dasharray:none;stroke-opacity:1"
         id="path15754"
         inkscape:connector-curvature="0" />
    </g>
    <text
       y="1307.208"
       x="150.13911"
       style="font-variant:normal;font-weight:normal;font-stretch:normal;font-size:7.04137516px;font-family:Helvetica;-inkscape-font-specification:Helvetica;writing-mode:lr-tb;fill:#231f20;fill-opacity:1;fill-rule:nonzero;stroke:none"
       id="text15756">
      <tspan
         x="150.13911 154.05342"
         y="1307.208"
         sodipodi:role="line"
         id="tspan15758">60</tspan>
    </text>
    <g
       id="g15760"
       transform="matrix(1.25,0,0,-1.25,177.82286,1300.2181)">
      <path
         d="M 0,0 0,1.721"
         style="fill:none;stroke:#231f20;stroke-width:0.063;stroke-linecap:butt;stroke-linejoin:round;stroke-miterlimit:10;stroke-dasharray:none;stroke-opacity:1"
         id="path15762"
         inkscape:connector-curvature="0" />
    </g>
    <g
       id="g15764"
       transform="matrix(1.25,0,0,-1.25,177.82286,1206.9206)">
      <path
         d="M 0,0 0,-1.711"
         style="fill:none;stroke:#231f20;stroke-width:0.063;stroke-linecap:butt;stroke-linejoin:round;stroke-miterlimit:10;stroke-dasharray:none;stroke-opacity:1"
         id="path15766"
         inkscape:connector-curvature="0" />
    </g>
    <text
       y="1307.208"
       x="173.91162"
       style="font-variant:normal;font-weight:normal;font-stretch:normal;font-size:7.04137516px;font-family:Helvetica;-inkscape-font-specification:Helvetica;writing-mode:lr-tb;fill:#231f20;fill-opacity:1;fill-rule:nonzero;stroke:none"
       id="text15768">
      <tspan
         x="173.91162 177.82521"
         y="1307.208"
         sodipodi:role="line"
         id="tspan15770">70</tspan>
    </text>
    <g
       id="g15772"
       transform="matrix(1.25,0,0,-1.25,201.60536,1300.2181)">
      <path
         d="M 0,0 0,1.721"
         style="fill:none;stroke:#231f20;stroke-width:0.063;stroke-linecap:butt;stroke-linejoin:round;stroke-miterlimit:10;stroke-dasharray:none;stroke-opacity:1"
         id="path15774"
         inkscape:connector-curvature="0" />
    </g>
    <g
       id="g15776"
       transform="matrix(1.25,0,0,-1.25,201.60536,1206.9206)">
      <path
         d="M 0,0 0,-1.711"
         style="fill:none;stroke:#231f20;stroke-width:0.063;stroke-linecap:butt;stroke-linejoin:round;stroke-miterlimit:10;stroke-dasharray:none;stroke-opacity:1"
         id="path15778"
         inkscape:connector-curvature="0" />
    </g>
    <text
       y="1307.208"
       x="197.69537"
       style="font-variant:normal;font-weight:normal;font-stretch:normal;font-size:7.04137516px;font-family:Helvetica;-inkscape-font-specification:Helvetica;writing-mode:lr-tb;fill:#231f20;fill-opacity:1;fill-rule:nonzero;stroke:none"
       id="text15780">
      <tspan
         x="197.69537 201.60896"
         y="1307.208"
         sodipodi:role="line"
         id="tspan15782">80</tspan>
    </text>
    <g
       id="g15784"
       transform="matrix(1.25,0,0,-1.25,225.37785,1300.2181)">
      <path
         d="M 0,0 0,1.721"
         style="fill:none;stroke:#231f20;stroke-width:0.063;stroke-linecap:butt;stroke-linejoin:round;stroke-miterlimit:10;stroke-dasharray:none;stroke-opacity:1"
         id="path15786"
         inkscape:connector-curvature="0" />
    </g>
    <g
       id="g15788"
       transform="matrix(1.25,0,0,-1.25,225.37785,1206.9206)">
      <path
         d="M 0,0 0,-1.711"
         style="fill:none;stroke:#231f20;stroke-width:0.063;stroke-linecap:butt;stroke-linejoin:round;stroke-miterlimit:10;stroke-dasharray:none;stroke-opacity:1"
         id="path15790"
         inkscape:connector-curvature="0" />
    </g>
    <text
       y="1307.208"
       x="221.46536"
       style="font-variant:normal;font-weight:normal;font-stretch:normal;font-size:7.04137516px;font-family:Helvetica;-inkscape-font-specification:Helvetica;writing-mode:lr-tb;fill:#231f20;fill-opacity:1;fill-rule:nonzero;stroke:none"
       id="text15792">
      <tspan
         x="221.46536 225.37897"
         y="1307.208"
         sodipodi:role="line"
         id="tspan15794">90</tspan>
    </text>
    <g
       id="g15796"
       transform="matrix(1.25,0,0,-1.25,249.1616,1300.2181)">
      <path
         d="M 0,0 0,1.721"
         style="fill:none;stroke:#231f20;stroke-width:0.063;stroke-linecap:butt;stroke-linejoin:round;stroke-miterlimit:10;stroke-dasharray:none;stroke-opacity:1"
         id="path15798"
         inkscape:connector-curvature="0" />
    </g>
    <g
       id="g15800"
       transform="matrix(1.25,0,0,-1.25,249.1616,1206.9206)">
      <path
         d="M 0,0 0,-1.711"
         style="fill:none;stroke:#231f20;stroke-width:0.063;stroke-linecap:butt;stroke-linejoin:round;stroke-miterlimit:10;stroke-dasharray:none;stroke-opacity:1"
         id="path15802"
         inkscape:connector-curvature="0" />
    </g>
    <g
       id="g15804"
       transform="matrix(1.25,0,0,-1.25,35.169123,1300.2181)">
      <path
         d="M 0,0 1.711,0"
         style="fill:none;stroke:#231f20;stroke-width:0.063;stroke-linecap:butt;stroke-linejoin:round;stroke-miterlimit:10;stroke-dasharray:none;stroke-opacity:1"
         id="path15806"
         inkscape:connector-curvature="0" />
    </g>
    <g
       id="g15808"
       transform="matrix(1.25,0,0,-1.25,249.1616,1300.2181)">
      <path
         d="M 0,0 -1.721,0"
         style="fill:none;stroke:#231f20;stroke-width:0.063;stroke-linecap:butt;stroke-linejoin:round;stroke-miterlimit:10;stroke-dasharray:none;stroke-opacity:1"
         id="path15810"
         inkscape:connector-curvature="0" />
    </g>
    <text
       y="1302.8256"
       x="30.801233"
       style="font-variant:normal;font-weight:normal;font-stretch:normal;font-size:7.04137516px;font-family:Helvetica;-inkscape-font-specification:Helvetica;writing-mode:lr-tb;fill:#231f20;fill-opacity:1;fill-rule:nonzero;stroke:none"
       id="text15812">
      <tspan
         x="30.801233"
         y="1302.8256"
         id="tspan15814">1</tspan>
    </text>
    <g
       id="g15816"
       transform="matrix(1.25,0,0,-1.25,35.169123,1269.1193)">
      <path
         d="M 0,0 1.711,0"
         style="fill:none;stroke:#231f20;stroke-width:0.063;stroke-linecap:butt;stroke-linejoin:round;stroke-miterlimit:10;stroke-dasharray:none;stroke-opacity:1"
         id="path15818"
         inkscape:connector-curvature="0" />
    </g>
    <g
       id="g15820"
       transform="matrix(1.25,0,0,-1.25,249.1616,1269.1193)">
      <path
         d="M 0,0 -1.721,0"
         style="fill:none;stroke:#231f20;stroke-width:0.063;stroke-linecap:butt;stroke-linejoin:round;stroke-miterlimit:10;stroke-dasharray:none;stroke-opacity:1"
         id="path15822"
         inkscape:connector-curvature="0" />
    </g>
    <text
       y="1271.7268"
       x="24.933483"
       style="font-variant:normal;font-weight:normal;font-stretch:normal;font-size:7.04137516px;font-family:Helvetica;-inkscape-font-specification:Helvetica;writing-mode:lr-tb;fill:#231f20;fill-opacity:1;fill-rule:nonzero;stroke:none"
       id="text15824">
      <tspan
         x="24.933483 28.848488 30.80599"
         y="1271.7268"
         sodipodi:role="line"
         id="tspan15826">1.5</tspan>
    </text>
    <g
       id="g15828"
       transform="matrix(1.25,0,0,-1.25,35.169123,1238.0068)">
      <path
         d="M 0,0 1.711,0"
         style="fill:none;stroke:#231f20;stroke-width:0.063;stroke-linecap:butt;stroke-linejoin:round;stroke-miterlimit:10;stroke-dasharray:none;stroke-opacity:1"
         id="path15830"
         inkscape:connector-curvature="0" />
    </g>
    <g
       id="g15832"
       transform="matrix(1.25,0,0,-1.25,249.1616,1238.0068)">
      <path
         d="M 0,0 -1.721,0"
         style="fill:none;stroke:#231f20;stroke-width:0.063;stroke-linecap:butt;stroke-linejoin:round;stroke-miterlimit:10;stroke-dasharray:none;stroke-opacity:1"
         id="path15834"
         inkscape:connector-curvature="0" />
    </g>
    <text
       y="1240.6143"
       x="30.801233"
       style="font-variant:normal;font-weight:normal;font-stretch:normal;font-size:7.04137516px;font-family:Helvetica;-inkscape-font-specification:Helvetica;writing-mode:lr-tb;fill:#231f20;fill-opacity:1;fill-rule:nonzero;stroke:none"
       id="text15836">
      <tspan
         x="30.801233"
         y="1240.6143"
         id="tspan15838">2</tspan>
    </text>
    <g
       id="g15840"
       transform="matrix(1.25,0,0,-1.25,35.169123,1206.9206)">
      <path
         d="M 0,0 1.711,0"
         style="fill:none;stroke:#231f20;stroke-width:0.063;stroke-linecap:butt;stroke-linejoin:round;stroke-miterlimit:10;stroke-dasharray:none;stroke-opacity:1"
         id="path15842"
         inkscape:connector-curvature="0" />
    </g>
    <g
       id="g15844"
       transform="matrix(1.25,0,0,-1.25,249.1616,1206.9206)">
      <path
         d="M 0,0 -1.721,0"
         style="fill:none;stroke:#231f20;stroke-width:0.063;stroke-linecap:butt;stroke-linejoin:round;stroke-miterlimit:10;stroke-dasharray:none;stroke-opacity:1"
         id="path15846"
         inkscape:connector-curvature="0" />
    </g>
    <text
       y="1209.5281"
       x="24.933483"
       style="font-variant:normal;font-weight:normal;font-stretch:normal;font-size:7.04137516px;font-family:Helvetica;-inkscape-font-specification:Helvetica;writing-mode:lr-tb;fill:#231f20;fill-opacity:1;fill-rule:nonzero;stroke:none"
       id="text15848">
      <tspan
         x="24.933483 28.848488 30.80599"
         y="1209.5281"
         sodipodi:role="line"
         id="tspan15850">2.5</tspan>
    </text>
    <g
       id="g15852"
       transform="matrix(1.25,0,0,-1.25,35.169123,1300.2181)">
      <path
         d="M 0,0 171.194,0"
         style="fill:none;stroke:#231f20;stroke-width:0.063;stroke-linecap:butt;stroke-linejoin:round;stroke-miterlimit:10;stroke-dasharray:none;stroke-opacity:1"
         id="path15854"
         inkscape:connector-curvature="0" />
    </g>
    <g
       id="g15856"
       transform="matrix(1.25,0,0,-1.25,35.169123,1206.9206)">
      <path
         d="M 0,0 171.194,0"
         style="fill:none;stroke:#231f20;stroke-width:0.063;stroke-linecap:butt;stroke-linejoin:round;stroke-miterlimit:10;stroke-dasharray:none;stroke-opacity:1"
         id="path15858"
         inkscape:connector-curvature="0" />
    </g>
    <g
       id="g15860"
       transform="matrix(1.25,0,0,-1.25,35.169123,1300.2181)">
      <path
         d="M 0,0 0,74.638"
         style="fill:none;stroke:#231f20;stroke-width:0.063;stroke-linecap:butt;stroke-linejoin:round;stroke-miterlimit:10;stroke-dasharray:none;stroke-opacity:1"
         id="path15862"
         inkscape:connector-curvature="0" />
    </g>
    <g
       id="g15864"
       transform="matrix(1.25,0,0,-1.25,249.1616,1300.2181)">
      <path
         d="M 0,0 0,74.638"
         style="fill:none;stroke:#231f20;stroke-width:0.063;stroke-linecap:butt;stroke-linejoin:round;stroke-miterlimit:10;stroke-dasharray:none;stroke-opacity:1"
         id="path15866"
         inkscape:connector-curvature="0" />
    </g>
    <g
       transform="matrix(1.25,0,0,-1.25,-80.117136,1962.9506)"
       id="g15868">
      <g
         id="g15870"
         clip-path="url(#clipPath15872)">
        <g
           id="g15876"
           transform="translate(92.229,537.06)">
          <path
             d="m 0,0 19.017,9.952 19.017,7.459 19.027,5.476 19.017,6.969 19.028,7.959 19.017,6.968 19.026,4.976 19.018,7.459 19.027,7.469"
             style="fill:none;stroke:#3b4fa2;stroke-width:0.75099999;stroke-linecap:butt;stroke-linejoin:round;stroke-miterlimit:10;stroke-dasharray:0.751, 0.751;stroke-dashoffset:0;stroke-opacity:1"
             id="path15878"
             inkscape:connector-curvature="0" />
        </g>
      </g>
    </g>
    <g
       id="g15880"
       transform="matrix(1.25,0,0,-1.25,34.086623,1292.2518)">
      <path
         d="M 0,0 1.732,0 0.866,1.492 0,0 Z"
         style="fill:none;stroke:#3b4fa2;stroke-width:0.75099999;stroke-linecap:butt;stroke-linejoin:miter;stroke-miterlimit:10;stroke-dasharray:none;stroke-opacity:1"
         id="path15882"
         inkscape:connector-curvature="0" />
    </g>
    <g
       id="g15884"
       transform="matrix(1.25,0,0,-1.25,57.857863,1279.8118)">
      <path
         d="M 0,0 1.732,0 0.866,1.492 0,0 Z"
         style="fill:none;stroke:#3b4fa2;stroke-width:0.75099999;stroke-linecap:butt;stroke-linejoin:miter;stroke-miterlimit:10;stroke-dasharray:none;stroke-opacity:1"
         id="path15886"
         inkscape:connector-curvature="0" />
    </g>
    <g
       id="g15888"
       transform="matrix(1.25,0,0,-1.25,81.629113,1270.4881)">
      <path
         d="M 0,0 1.732,0 0.866,1.492 0,0 Z"
         style="fill:none;stroke:#3b4fa2;stroke-width:0.75099999;stroke-linecap:butt;stroke-linejoin:miter;stroke-miterlimit:10;stroke-dasharray:none;stroke-opacity:1"
         id="path15890"
         inkscape:connector-curvature="0" />
    </g>
    <g
       id="g15892"
       transform="matrix(1.25,0,0,-1.25,105.41411,1263.6418)">
      <path
         d="M 0,0 1.731,0 0.865,1.491 0,0 Z"
         style="fill:none;stroke:#3b4fa2;stroke-width:0.75099999;stroke-linecap:butt;stroke-linejoin:miter;stroke-miterlimit:10;stroke-dasharray:none;stroke-opacity:1"
         id="path15894"
         inkscape:connector-curvature="0" />
    </g>
    <g
       id="g15896"
       transform="matrix(1.25,0,0,-1.25,129.1841,1254.9318)">
      <path
         d="M 0,0 1.732,0 0.866,1.492 0,0 Z"
         style="fill:none;stroke:#3b4fa2;stroke-width:0.75099999;stroke-linecap:butt;stroke-linejoin:miter;stroke-miterlimit:10;stroke-dasharray:none;stroke-opacity:1"
         id="path15898"
         inkscape:connector-curvature="0" />
    </g>
    <g
       id="g15900"
       transform="matrix(1.25,0,0,-1.25,152.96909,1244.9831)">
      <path
         d="M 0,0 1.731,0 0.866,1.492 0,0 Z"
         style="fill:none;stroke:#3b4fa2;stroke-width:0.75099999;stroke-linecap:butt;stroke-linejoin:miter;stroke-miterlimit:10;stroke-dasharray:none;stroke-opacity:1"
         id="path15902"
         inkscape:connector-curvature="0" />
    </g>
    <g
       id="g15904"
       transform="matrix(1.25,0,0,-1.25,176.74034,1236.2718)">
      <path
         d="M 0,0 1.731,0 0.866,1.491 0,0 Z"
         style="fill:none;stroke:#3b4fa2;stroke-width:0.75099999;stroke-linecap:butt;stroke-linejoin:miter;stroke-miterlimit:10;stroke-dasharray:none;stroke-opacity:1"
         id="path15906"
         inkscape:connector-curvature="0" />
    </g>
    <g
       id="g15908"
       transform="matrix(1.25,0,0,-1.25,200.5241,1230.0518)">
      <path
         d="M 0,0 1.731,0 0.865,1.491 0,0 Z"
         style="fill:none;stroke:#3b4fa2;stroke-width:0.75099999;stroke-linecap:butt;stroke-linejoin:miter;stroke-miterlimit:10;stroke-dasharray:none;stroke-opacity:1"
         id="path15910"
         inkscape:connector-curvature="0" />
    </g>
    <g
       id="g15912"
       transform="matrix(1.25,0,0,-1.25,224.29411,1220.7293)">
      <path
         d="M 0,0 1.733,0 0.867,1.492 0,0 Z"
         style="fill:none;stroke:#3b4fa2;stroke-width:0.75099999;stroke-linecap:butt;stroke-linejoin:miter;stroke-miterlimit:10;stroke-dasharray:none;stroke-opacity:1"
         id="path15914"
         inkscape:connector-curvature="0" />
    </g>
    <g
       id="g15916"
       transform="matrix(1.25,0,0,-1.25,248.08035,1211.3931)">
      <path
         d="M 0,0 1.731,0 0.865,1.492 0,0 Z"
         style="fill:none;stroke:#3b4fa2;stroke-width:0.75099999;stroke-linecap:butt;stroke-linejoin:miter;stroke-miterlimit:10;stroke-dasharray:none;stroke-opacity:1"
         id="path15918"
         inkscape:connector-curvature="0" />
    </g>
    <g
       transform="matrix(1.25,0,0,-1.25,-80.117136,1962.9506)"
       id="g15920">
      <g
         id="g15922"
         clip-path="url(#clipPath15924)">
        <g
           id="g15928"
           transform="translate(92.229004,538.24899)">
          <path
             d="m 0,0 19.017,6.896 c 44.379,16.106 88.765,32.197 133.15,48.288 l 19.027,6.906"
             style="fill:none;stroke:#231f20;stroke-width:0.75099999;stroke-linecap:butt;stroke-linejoin:round;stroke-miterlimit:10;stroke-dasharray:none;stroke-opacity:1"
             id="path15930"
             inkscape:connector-curvature="0" />
        </g>
      </g>
    </g>
    <text
       y="22.638483"
       x="-1293.698"
       transform="matrix(0,-1,1,0,0,0)"
       style="font-variant:normal;font-weight:normal;font-stretch:normal;font-size:7.04137516px;font-family:Helvetica;-inkscape-font-specification:Helvetica;writing-mode:lr-tb;fill:#231f20;fill-opacity:1;fill-rule:nonzero;stroke:none"
       id="text15932">
      <tspan
         x="-1293.698 -1288.6149 -1284.7006 -1280.7863 -1276.8719 -1274.9131 -1270.2172 -1266.6971 -1263.1772 -1259.2629 -1255.7429 -1252.2229 -1250.264 -1245.9624 -1244.4 -1238.5352 -1234.6208 -1232.662 -1230.3179 -1226.4036 -1222.8837 -1218.9694 -1215.4493"
         y="22.638483"
         sodipodi:role="line"
         id="tspan15934">Read Access Time (nsec)</tspan>
    </text>
    <text
       y="1314.223"
       x="128.23288"
       style="font-variant:normal;font-weight:normal;font-size:7.04137516px;font-family:mwb;-inkscape-font-specification:mwb;writing-mode:lr-tb;fill:#231f20;fill-opacity:1;fill-rule:nonzero;stroke:none"
       id="text15936">
      <tspan
         x="128.23288"
         y="1314.223"
         id="tspan15938">β</tspan>
    </text>
    <text
       y="1314.223"
       x="134.57011"
       style="font-variant:normal;font-weight:normal;font-size:7.04137516px;font-family:mwa;-inkscape-font-specification:mwa;writing-mode:lr-tb;fill:#231f20;fill-opacity:1;fill-rule:nonzero;stroke:none"
       id="text15940">
      <tspan
         x="134.57011"
         y="1314.223"
         id="tspan15942">=</tspan>
    </text>
    <text
       y="1311.3018"
       x="142.87662"
       style="font-variant:normal;font-weight:normal;font-size:4.9289999px;font-family:mwa;-inkscape-font-specification:mwa;writing-mode:lr-tb;fill:#231f20;fill-opacity:1;fill-rule:nonzero;stroke:none"
       id="text15944">
      <tspan
         x="142.87662"
         y="1311.3018"
         id="tspan15946">R</tspan>
    </text>
    <text
       y="1312.0455"
       x="146.63162"
       style="font-variant:normal;font-weight:normal;font-size:3.52062488px;font-family:mwa;-inkscape-font-specification:mwa;writing-mode:lr-tb;fill:#231f20;fill-opacity:1;fill-rule:nonzero;stroke:none"
       id="text15948">
      <tspan
         x="146.63162 149.47417 152.34137"
         y="1312.0455"
         sodipodi:role="line"
         id="tspan15950">OFF</tspan>
    </text>
    <path
       d="m 142.8766,1312.6193 12.3875,0 0,-0.2875 -12.3875,0 0,0.2875 z"
       style="fill:#231f20;fill-opacity:1;fill-rule:nonzero;stroke:none"
       id="path15952"
       inkscape:connector-curvature="0" />
    <text
       y="1316.6617"
       x="144.02412"
       style="font-variant:normal;font-weight:normal;font-size:4.9289999px;font-family:mwa;-inkscape-font-specification:mwa;writing-mode:lr-tb;fill:#231f20;fill-opacity:1;fill-rule:nonzero;stroke:none"
       id="text15954">
      <tspan
         x="144.02412"
         y="1316.6617"
         id="tspan15956">R</tspan>
    </text>
    <text
       y="1317.3918"
       x="147.77911"
       style="font-variant:normal;font-weight:normal;font-size:3.52062488px;font-family:mwa;-inkscape-font-specification:mwa;writing-mode:lr-tb;fill:#231f20;fill-opacity:1;fill-rule:nonzero;stroke:none"
       id="text15958">
      <tspan
         x="147.77911 150.62167"
         y="1317.3918"
         sodipodi:role="line"
         id="tspan15960">ON</tspan>
    </text>
    <text
       y="1214.6393"
       x="45.954113"
       style="font-variant:normal;font-weight:normal;font-stretch:normal;font-size:7.04137516px;font-family:Helvetica;-inkscape-font-specification:Helvetica;writing-mode:lr-tb;fill:#231f20;fill-opacity:1;fill-rule:nonzero;stroke:none"
       id="text15962">
      <tspan
         x="45.954113 49.868412 53.979874 57.894173 61.808472 67.673233 69.632149 74.328041 75.890518 81.75528 85.669579 87.232063 91.146362 93.103157 94.665642 98.579941 102.49424 104.45316 109.53632 113.45062 116.9706 120.8849 122.44739 124.40418"
         y="1214.6393"
         sodipodi:role="line"
         id="tspan15964">L=1nm Simulation Results</tspan>
    </text>
    <g
       id="g15966"
       transform="matrix(1.25,0,0,-1.25,37.477863,1212.1356)">
      <path
         d="M 0,0 6.154,0"
         style="fill:none;stroke:#3b4fa2;stroke-width:0.75099999;stroke-linecap:butt;stroke-linejoin:round;stroke-miterlimit:10;stroke-dasharray:0.751, 0.751;stroke-dashoffset:0;stroke-opacity:1"
         id="path15968"
         inkscape:connector-curvature="0" />
    </g>
    <g
       id="g15970"
       transform="matrix(1.25,0,0,-1.25,40.241613,1212.7618)">
      <path
         d="M 0,0 1.732,0 0.866,1.492 0,0 Z"
         style="fill:none;stroke:#3b4fa2;stroke-width:0.75099999;stroke-linecap:butt;stroke-linejoin:miter;stroke-miterlimit:10;stroke-dasharray:none;stroke-opacity:1"
         id="path15972"
         inkscape:connector-curvature="0" />
    </g>
    <text
       y="1222.7631"
       x="45.952862"
       style="font-variant:normal;font-weight:normal;font-stretch:normal;font-size:7.04137516px;font-family:Helvetica;-inkscape-font-specification:Helvetica;writing-mode:lr-tb;fill:#231f20;fill-opacity:1;fill-rule:nonzero;stroke:none"
       id="text15974">
      <tspan
         x="45.952862 50.648754 54.563057 58.477356 60.039837 63.559822 65.516617 67.079102 70.599083 74.51339 76.075867 78.034775 83.899536 87.813835 91.728134 95.642433"
         y="1222.7631"
         sodipodi:role="line"
         id="tspan15976">Analytical Model</tspan>
    </text>
    <g
       id="g15978"
       transform="matrix(1.25,0,0,-1.25,37.477873,1220.2593)">
      <path
         d="M 0,0 6.154,0"
         style="fill:none;stroke:#231f20;stroke-width:0.75099999;stroke-linecap:butt;stroke-linejoin:round;stroke-miterlimit:10;stroke-dasharray:none;stroke-opacity:1"
         id="path15980"
         inkscape:connector-curvature="0" />
    </g>
  </g>
</svg>
