<?xml version="1.0" encoding="UTF-8" standalone="no"?>
<!-- Created with Inkscape (http://www.inkscape.org/) -->

<svg
   xmlns:dc="http://purl.org/dc/elements/1.1/"
   xmlns:cc="http://creativecommons.org/ns#"
   xmlns:rdf="http://www.w3.org/1999/02/22-rdf-syntax-ns#"
   xmlns:svg="http://www.w3.org/2000/svg"
   xmlns="http://www.w3.org/2000/svg"
   xmlns:sodipodi="http://sodipodi.sourceforge.net/DTD/sodipodi-0.dtd"
   xmlns:inkscape="http://www.inkscape.org/namespaces/inkscape"
   width="87mm"
   height="35mm"
   viewBox="0 0 308.26771 124.01574"
   id="svg4446"
   version="1.1"
   inkscape:version="0.91 r13725"
   sodipodi:docname="results.svg">
  <defs
     id="defs4448" />
  <sodipodi:namedview
     id="base"
     pagecolor="#ffffff"
     bordercolor="#666666"
     borderopacity="1.0"
     inkscape:pageopacity="0.0"
     inkscape:pageshadow="2"
     inkscape:zoom="0.35"
     inkscape:cx="375"
     inkscape:cy="520"
     inkscape:document-units="px"
     inkscape:current-layer="layer1"
     showgrid="false"
     inkscape:window-width="1280"
     inkscape:window-height="738"
     inkscape:window-x="-8"
     inkscape:window-y="-8"
     inkscape:window-maximized="1" />
  <metadata
     id="metadata4451">
    <rdf:RDF>
      <cc:Work
         rdf:about="">
        <dc:format>image/svg+xml</dc:format>
        <dc:type
           rdf:resource="http://purl.org/dc/dcmitype/StillImage" />
        <dc:title></dc:title>
      </cc:Work>
    </rdf:RDF>
  </metadata>
  <g
     inkscape:label="Layer 1"
     inkscape:groupmode="layer"
     id="layer1"
     transform="translate(0,-928.34645)">
    <path
       d="m 8.8257143,956.79158 78.3049997,0 0,-12.21 -78.3049997,0 0,12.21 z"
       style="fill:#c8c7c7;fill-opacity:1;fill-rule:nonzero;stroke:none"
       id="path4040"
       inkscape:connector-curvature="0" />
    <path
       d="m 14.894464,956.79158 66.16875,0 0,-12.21 -66.16875,0 0,12.21 z"
       style="fill:#c8c7c7;fill-opacity:1;fill-rule:nonzero;stroke:none"
       id="path4042"
       inkscape:connector-curvature="0" />
    <text
       y="954.23297"
       x="14.893965"
       style="font-variant:normal;font-weight:normal;font-size:10.66550064px;font-family:'Times New Roman';-inkscape-font-specification:TimesNewRomanPSMT;writing-mode:lr-tb;fill:#231f20;fill-opacity:1;fill-rule:nonzero;stroke:none"
       id="text4044">
      <tspan
         x="14.893965 24.468384 29.224131 32.225403 35.661823 38.663097 43.346317"
         y="954.23297"
         sodipodi:role="line"
         id="tspan4046">Metric</tspan>
    </text>
    <path
       d="m 87.715714,956.79158 42.187496,0 0,-12.21 -42.187496,0 0,12.21 z"
       style="fill:#c8c7c7;fill-opacity:1;fill-rule:nonzero;stroke:none"
       id="path4048"
       inkscape:connector-curvature="0" />
    <path
       d="m 93.856964,956.79158 29.903746,0 0,-12.21 -29.903746,0 0,12.21 z"
       style="fill:#c8c7c7;fill-opacity:1;fill-rule:nonzero;stroke:none"
       id="path4050"
       inkscape:connector-curvature="0" />
    <text
       y="954.23297"
       x="93.857216"
       style="font-variant:normal;font-weight:normal;font-size:10.66550064px;font-family:'Times New Roman';-inkscape-font-specification:TimesNewRomanPSMT;writing-mode:lr-tb;fill:#231f20;fill-opacity:1;fill-rule:nonzero;stroke:none"
       id="text4052">
      <tspan
         x="93.857216 101.52998 105.03893 109.86826 115.13275 118.13403 121.13529 123.76753"
         y="954.23297"
         sodipodi:role="line"
         id="tspan4054">Archit.</tspan>
    </text>
    <path
       d="m 130.48696,956.79158 93.07375,0 0,-12.21 -93.07375,0 0,12.21 z"
       style="fill:#c8c7c7;fill-opacity:1;fill-rule:nonzero;stroke:none"
       id="path4056"
       inkscape:connector-curvature="0" />
    <path
       d="m 136.55571,956.79158 80.86375,0 0,-12.21 -80.86375,0 0,12.21 z"
       style="fill:#c8c7c7;fill-opacity:1;fill-rule:nonzero;stroke:none"
       id="path4058"
       inkscape:connector-curvature="0" />
    <text
       y="954.23297"
       x="136.55608"
       style="font-variant:normal;font-weight:normal;font-size:10.66550064px;font-family:'Times New Roman';-inkscape-font-specification:TimesNewRomanPSMT;writing-mode:lr-tb;fill:#231f20;fill-opacity:1;fill-rule:nonzero;stroke:none"
       id="text4060">
      <tspan
         x="136.55608 144.2587 151.96132 159.66396 162.36871 168.30087 173.03848 178.37337 183.70825 188.44586 193.78075 198.51837 201.4855 206.75 212.08488"
         y="954.23297"
         sodipodi:role="line"
         id="tspan4062">DNA Sequencing</tspan>
    </text>
    <path
       d="m 224.07321,956.79158 73.62625,0 0,-12.21 -73.62625,0 0,12.21 z"
       style="fill:#c8c7c7;fill-opacity:1;fill-rule:nonzero;stroke:none"
       id="path4064"
       inkscape:connector-curvature="0" />
    <path
       d="m 230.21571,956.79158 61.3425,0 0,-12.21 -61.3425,0 0,12.21 z"
       style="fill:#c8c7c7;fill-opacity:1;fill-rule:nonzero;stroke:none"
       id="path4066"
       inkscape:connector-curvature="0" />
    <text
       y="954.23297"
       x="230.21521"
       style="font-variant:normal;font-weight:normal;font-size:10.66550064px;font-family:'Times New Roman';-inkscape-font-specification:TimesNewRomanPSMT;writing-mode:lr-tb;fill:#231f20;fill-opacity:1;fill-rule:nonzero;stroke:none"
       id="text4068">
      <tspan
         x="230.21521 235.55223"
         y="954.23297"
         sodipodi:role="line"
         id="tspan4070">10</tspan>
    </text>
    <text
       y="949.48047"
       x="240.88995"
       style="font-variant:normal;font-weight:normal;font-size:7.1103754px;font-family:'Times New Roman';-inkscape-font-specification:TimesNewRomanPSMT;writing-mode:lr-tb;fill:#231f20;fill-opacity:1;fill-rule:nonzero;stroke:none"
       id="text4072">
      <tspan
         x="240.88995"
         y="949.48047"
         id="tspan4074">6</tspan>
    </text>
    <text
       y="954.23297"
       x="247.10411"
       style="font-variant:normal;font-weight:normal;font-size:10.66550064px;font-family:'Times New Roman';-inkscape-font-specification:TimesNewRomanPSMT;writing-mode:lr-tb;fill:#231f20;fill-opacity:1;fill-rule:nonzero;stroke:none"
       id="text4076">
      <tspan
         x="247.10411 251.93344 257.27048 262.54562 265.45306 268.45432 271.4556 276.7926 282.06775 286.15906"
         y="954.23297"
         sodipodi:role="line"
         id="tspan4078">additions</tspan>
    </text>
    <path
       d="m 8.2407143,944.58158 0.585,0 0,-2.705 -0.585,0 0,2.705 z"
       style="fill:#231f20;fill-opacity:1;fill-rule:nonzero;stroke:none"
       id="path4080"
       inkscape:connector-curvature="0" />
    <path
       d="m 8.8257143,944.58158 2.6324997,0 0,-0.0725 -2.6324997,0 0,0.0725 z"
       style="fill:#c8c7c7;fill-opacity:1;fill-rule:nonzero;stroke:none"
       id="path4082"
       inkscape:connector-curvature="0" />
    <path
       d="m 8.8257143,944.50908 78.3049997,0 0,-2.6325 -78.3049997,0 0,2.6325 z"
       style="fill:#231f20;fill-opacity:1;fill-rule:nonzero;stroke:none"
       id="path4084"
       inkscape:connector-curvature="0" />
    <path
       d="m 11.456964,944.58158 75.6725,0 0,-0.0725 -75.6725,0 0,0.0725 z"
       style="fill:#c8c7c7;fill-opacity:1;fill-rule:nonzero;stroke:none"
       id="path4086"
       inkscape:connector-curvature="0" />
    <path
       d="m 87.715714,944.58158 2.0475,0 0,-0.0725 -2.0475,0 0,0.0725 z"
       style="fill:#c8c7c7;fill-opacity:1;fill-rule:nonzero;stroke:none"
       id="path4088"
       inkscape:connector-curvature="0" />
    <path
       d="m 87.130714,944.58158 0.585,0 0,-0.0725 -0.585,0 0,0.0725 z"
       style="fill:#231f20;fill-opacity:1;fill-rule:nonzero;stroke:none"
       id="path4090"
       inkscape:connector-curvature="0" />
    <path
       d="m 87.130714,944.50908 42.772496,0 0,-2.6325 -42.772496,0 0,2.6325 z"
       style="fill:#231f20;fill-opacity:1;fill-rule:nonzero;stroke:none"
       id="path4092"
       inkscape:connector-curvature="0" />
    <path
       d="m 89.763214,944.58158 40.139996,0 0,-0.0725 -40.139996,0 0,0.0725 z"
       style="fill:#c8c7c7;fill-opacity:1;fill-rule:nonzero;stroke:none"
       id="path4094"
       inkscape:connector-curvature="0" />
    <path
       d="m 130.48696,944.58158 2.0475,0 0,-0.0725 -2.0475,0 0,0.0725 z"
       style="fill:#c8c7c7;fill-opacity:1;fill-rule:nonzero;stroke:none"
       id="path4096"
       inkscape:connector-curvature="0" />
    <path
       d="m 129.90321,944.58158 0.585,0 0,-0.0725 -0.585,0 0,0.0725 z"
       style="fill:#231f20;fill-opacity:1;fill-rule:nonzero;stroke:none"
       id="path4098"
       inkscape:connector-curvature="0" />
    <path
       d="m 129.90321,944.50908 93.65875,0 0,-2.6325 -93.65875,0 0,2.6325 z"
       style="fill:#231f20;fill-opacity:1;fill-rule:nonzero;stroke:none"
       id="path4100"
       inkscape:connector-curvature="0" />
    <path
       d="m 132.53446,944.58158 91.0275,0 0,-0.0725 -91.0275,0 0,0.0725 z"
       style="fill:#c8c7c7;fill-opacity:1;fill-rule:nonzero;stroke:none"
       id="path4102"
       inkscape:connector-curvature="0" />
    <path
       d="m 224.07321,944.58158 2.12,0 0,-0.0725 -2.12,0 0,0.0725 z"
       style="fill:#c8c7c7;fill-opacity:1;fill-rule:nonzero;stroke:none"
       id="path4104"
       inkscape:connector-curvature="0" />
    <path
       d="m 223.56196,944.58158 0.51125,0 0,-0.0725 -0.51125,0 0,0.0725 z"
       style="fill:#231f20;fill-opacity:1;fill-rule:nonzero;stroke:none"
       id="path4106"
       inkscape:connector-curvature="0" />
    <path
       d="m 223.56196,944.50908 74.1375,0 0,-2.6325 -74.1375,0 0,2.6325 z"
       style="fill:#231f20;fill-opacity:1;fill-rule:nonzero;stroke:none"
       id="path4108"
       inkscape:connector-curvature="0" />
    <path
       d="m 226.19446,944.58158 71.505,0 0,-0.0725 -71.505,0 0,0.0725 z"
       style="fill:#c8c7c7;fill-opacity:1;fill-rule:nonzero;stroke:none"
       id="path4110"
       inkscape:connector-curvature="0" />
    <path
       d="m 297.69946,944.58158 0.585,0 0,-2.705 -0.585,0 0,2.705 z"
       style="fill:#231f20;fill-opacity:1;fill-rule:nonzero;stroke:none"
       id="path4112"
       inkscape:connector-curvature="0" />
    <path
       d="m 8.2407143,956.79158 0.585,0 0,-12.21 -0.585,0 0,12.21 z"
       style="fill:#231f20;fill-opacity:1;fill-rule:nonzero;stroke:none"
       id="path4114"
       inkscape:connector-curvature="0" />
    <path
       d="m 87.130714,956.79158 0.585,0 0,-12.21 -0.585,0 0,12.21 z"
       style="fill:#231f20;fill-opacity:1;fill-rule:nonzero;stroke:none"
       id="path4116"
       inkscape:connector-curvature="0" />
    <path
       d="m 129.90321,956.79158 0.585,0 0,-12.21 -0.585,0 0,12.21 z"
       style="fill:#231f20;fill-opacity:1;fill-rule:nonzero;stroke:none"
       id="path4118"
       inkscape:connector-curvature="0" />
    <path
       d="m 223.56196,956.79158 0.51125,0 0,-12.21 -0.51125,0 0,12.21 z"
       style="fill:#231f20;fill-opacity:1;fill-rule:nonzero;stroke:none"
       id="path4120"
       inkscape:connector-curvature="0" />
    <path
       d="m 297.69946,956.79158 0.585,0 0,-12.21 -0.585,0 0,12.21 z"
       style="fill:#231f20;fill-opacity:1;fill-rule:nonzero;stroke:none"
       id="path4122"
       inkscape:connector-curvature="0" />
    <text
       y="969.36761"
       x="14.893965"
       style="font-variant:normal;font-weight:bold;font-size:10.66550064px;font-family:'Times New Roman';-inkscape-font-specification:TimesNewRomanPS-BoldMT;writing-mode:lr-tb;fill:#231f20;fill-opacity:1;fill-rule:nonzero;stroke:none"
       id="text4124">
      <tspan
         x="14.893965 21.985456 27.893076 32.606159 37.435497 42.6264 48.109531 51.638744 57.546368 62.259449 65.260719 70.571075 75.981682 78.836838"
         y="969.36761"
         sodipodi:role="line"
         id="tspan4126">Energy-delay/</tspan>
      <tspan
         x="14.893965 20.239513 26.182331 30.930611 35.67889 41.024441 44.588852 47.566658 52.912205 58.757969 62.919643"
         y="981.57959"
         sodipodi:role="line"
         id="tspan4128">operations</tspan>
    </text>
    <text
       y="969.1543"
       x="93.861328"
       style="font-variant:normal;font-weight:normal;font-size:10.66550064px;font-family:'Times New Roman';-inkscape-font-specification:TimesNewRomanPSMT;writing-mode:lr-tb;fill:#231f20;fill-opacity:1;fill-rule:nonzero;stroke:none"
       id="text4130">
      <tspan
         x="93.861328 100.98268 106.3229 111.66311 117.00333 119.67716 152.8714 158.21161 160.88545 166.22566 171.56589 176.9061 182.24632 186.98926 190.54834 195.88855 201.15305 236.75983 242.10004 244.77388 250.11409 255.45432 260.79453 266.13477 270.87772 274.43677 279.77701 285.04147"
         y="969.1543"
         sodipodi:role="line"
         id="tspan4132">Conv. 2.0210e-06 1.5043e-18</tspan>
    </text>
    <path
       d="m 8.2407143,959.49658 0.585,0 0,-2.705 -0.585,0 0,2.705 z"
       style="fill:#231f20;fill-opacity:1;fill-rule:nonzero;stroke:none"
       id="path4134"
       inkscape:connector-curvature="0" />
    <path
       d="m 8.8257143,959.42408 78.3049997,0 0,-2.6325 -78.3049997,0 0,2.6325 z"
       style="fill:#231f20;fill-opacity:1;fill-rule:nonzero;stroke:none"
       id="path4136"
       inkscape:connector-curvature="0" />
    <path
       d="m 87.130714,959.49658 0.585,0 0,-0.0738 -0.585,0 0,0.0738 z"
       style="fill:#231f20;fill-opacity:1;fill-rule:nonzero;stroke:none"
       id="path4138"
       inkscape:connector-curvature="0" />
    <path
       d="m 87.130714,959.42408 42.772496,0 0,-2.6325 -42.772496,0 0,2.6325 z"
       style="fill:#231f20;fill-opacity:1;fill-rule:nonzero;stroke:none"
       id="path4140"
       inkscape:connector-curvature="0" />
    <path
       d="m 129.90321,959.49658 0.585,0 0,-0.0738 -0.585,0 0,0.0738 z"
       style="fill:#231f20;fill-opacity:1;fill-rule:nonzero;stroke:none"
       id="path4142"
       inkscape:connector-curvature="0" />
    <path
       d="m 129.90321,959.42408 93.65875,0 0,-2.6325 -93.65875,0 0,2.6325 z"
       style="fill:#231f20;fill-opacity:1;fill-rule:nonzero;stroke:none"
       id="path4144"
       inkscape:connector-curvature="0" />
    <path
       d="m 223.56196,959.49658 0.51125,0 0,-0.0738 -0.51125,0 0,0.0738 z"
       style="fill:#231f20;fill-opacity:1;fill-rule:nonzero;stroke:none"
       id="path4146"
       inkscape:connector-curvature="0" />
    <path
       d="m 223.56196,959.42408 74.1375,0 0,-2.6325 -74.1375,0 0,2.6325 z"
       style="fill:#231f20;fill-opacity:1;fill-rule:nonzero;stroke:none"
       id="path4148"
       inkscape:connector-curvature="0" />
    <path
       d="m 297.69946,959.49658 0.585,0 0,-2.705 -0.585,0 0,2.705 z"
       style="fill:#231f20;fill-opacity:1;fill-rule:nonzero;stroke:none"
       id="path4150"
       inkscape:connector-curvature="0" />
    <path
       d="m 8.2407143,971.70658 0.585,0 0,-12.21 -0.585,0 0,12.21 z"
       style="fill:#231f20;fill-opacity:1;fill-rule:nonzero;stroke:none"
       id="path4152"
       inkscape:connector-curvature="0" />
    <path
       d="m 87.130714,971.70658 0.585,0 0,-12.21 -0.585,0 0,12.21 z"
       style="fill:#231f20;fill-opacity:1;fill-rule:nonzero;stroke:none"
       id="path4154"
       inkscape:connector-curvature="0" />
    <path
       d="m 129.90321,971.70658 0.585,0 0,-12.21 -0.585,0 0,12.21 z"
       style="fill:#231f20;fill-opacity:1;fill-rule:nonzero;stroke:none"
       id="path4156"
       inkscape:connector-curvature="0" />
    <path
       d="m 223.56196,971.70658 0.51125,0 0,-12.21 -0.51125,0 0,12.21 z"
       style="fill:#231f20;fill-opacity:1;fill-rule:nonzero;stroke:none"
       id="path4158"
       inkscape:connector-curvature="0" />
    <path
       d="m 297.69946,971.70658 0.585,0 0,-12.21 -0.585,0 0,12.21 z"
       style="fill:#231f20;fill-opacity:1;fill-rule:nonzero;stroke:none"
       id="path4160"
       inkscape:connector-curvature="0" />
    <text
       y="982.01636"
       x="93.857216"
       style="font-variant:normal;font-weight:normal;font-size:10.66550064px;font-family:'Times New Roman';-inkscape-font-specification:TimesNewRomanPSMT;writing-mode:lr-tb;fill:#231f20;fill-opacity:1;fill-rule:nonzero;stroke:none"
       id="text4162">
      <tspan
         x="93.857216 100.97964 104.53978 113.96808 152.86516 158.20644 160.88135 166.22263 171.5639 176.90518 182.24648 186.99048 190.55063 195.89191 201.1564 236.76318 242.10446 244.77936 250.12065 255.46193 260.80322 266.1445 270.88852 274.44867 279.78995 285.05444"
         y="982.01636"
         sodipodi:role="line"
         id="tspan4164">CIM 2.3382e-09 9.2570e-21</tspan>
    </text>
    <path
       d="m 8.2407143,972.29158 0.585,0 0,-0.585 -0.585,0 0,0.585 z"
       style="fill:#231f20;fill-opacity:1;fill-rule:nonzero;stroke:none"
       id="path4166"
       inkscape:connector-curvature="0" />
    <path
       d="m 87.130714,972.29158 211.153746,0 0,-0.585 -211.153746,0 0,0.585 z"
       style="fill:#231f20;fill-opacity:1;fill-rule:nonzero;stroke:none"
       id="path4168"
       inkscape:connector-curvature="0" />
    <path
       d="m 8.2407143,984.57533 0.585,0 0,-12.2825 -0.585,0 0,12.2825 z"
       style="fill:#231f20;fill-opacity:1;fill-rule:nonzero;stroke:none"
       id="path4170"
       inkscape:connector-curvature="0" />
    <path
       d="m 87.130714,984.57533 0.585,0 0,-12.2825 -0.585,0 0,12.2825 z"
       style="fill:#231f20;fill-opacity:1;fill-rule:nonzero;stroke:none"
       id="path4172"
       inkscape:connector-curvature="0" />
    <path
       d="m 129.90321,984.57533 0.585,0 0,-12.2825 -0.585,0 0,12.2825 z"
       style="fill:#231f20;fill-opacity:1;fill-rule:nonzero;stroke:none"
       id="path4174"
       inkscape:connector-curvature="0" />
    <path
       d="m 223.56196,984.57533 0.51125,0 0,-12.2825 -0.51125,0 0,12.2825 z"
       style="fill:#231f20;fill-opacity:1;fill-rule:nonzero;stroke:none"
       id="path4176"
       inkscape:connector-curvature="0" />
    <path
       d="m 297.69946,984.57533 0.585,0 0,-12.2825 -0.585,0 0,12.2825 z"
       style="fill:#231f20;fill-opacity:1;fill-rule:nonzero;stroke:none"
       id="path4178"
       inkscape:connector-curvature="0" />
    <text
       y="997.15082"
       x="14.893965"
       style="font-variant:normal;font-weight:bold;font-size:10.66550064px;font-family:'Times New Roman';-inkscape-font-specification:TimesNewRomanPS-BoldMT;writing-mode:lr-tb;fill:#231f20;fill-opacity:1;fill-rule:nonzero;stroke:none"
       id="text4180">
      <tspan
         x="14.893965 22.60832 27.954937 36.853161 42.698925 48.642807 52.208282 55.187157 61.032921 66.379532"
         y="997.15082"
         sodipodi:role="line"
         id="tspan4182">Computing</tspan>
      <tspan
         x="14.893965 19.651844 23.160793 26.669744 29.671015 34.428894 37.416302 42.174183 48.019943 52.777821 58.188427"
         y="1009.4375"
         sodipodi:role="line"
         id="tspan4184">efficiency</tspan>
    </text>
    <text
       y="996.9375"
       x="93.861328"
       style="font-variant:normal;font-weight:normal;font-size:10.66550064px;font-family:'Times New Roman';-inkscape-font-specification:TimesNewRomanPSMT;writing-mode:lr-tb;fill:#231f20;fill-opacity:1;fill-rule:nonzero;stroke:none"
       id="text4186">
      <tspan
         x="93.861328 100.98268 106.3229 111.66311 117.00333 119.67716 151.62779 156.96802 159.64186 164.98207 170.3223 175.66251 181.00272 185.74567 191.76846 197.10869 202.44891 235.49596 240.83618 243.51003 248.85022 254.19044 259.53067 264.87088 269.61383 275.53638 280.87662 286.21683"
         y="996.9375"
         sodipodi:role="line"
         id="tspan4188">Conv. 4.1097e+04 6.5226e+09</tspan>
    </text>
    <path
       d="m 8.2407143,987.28033 0.585,0 0,-2.705 -0.585,0 0,2.705 z"
       style="fill:#231f20;fill-opacity:1;fill-rule:nonzero;stroke:none"
       id="path4190"
       inkscape:connector-curvature="0" />
    <path
       d="m 8.8257143,987.20783 78.3049997,0 0,-2.6325 -78.3049997,0 0,2.6325 z"
       style="fill:#231f20;fill-opacity:1;fill-rule:nonzero;stroke:none"
       id="path4192"
       inkscape:connector-curvature="0" />
    <path
       d="m 87.130714,987.28033 0.585,0 0,-0.0725 -0.585,0 0,0.0725 z"
       style="fill:#231f20;fill-opacity:1;fill-rule:nonzero;stroke:none"
       id="path4194"
       inkscape:connector-curvature="0" />
    <path
       d="m 87.130714,987.20783 42.772496,0 0,-2.6325 -42.772496,0 0,2.6325 z"
       style="fill:#231f20;fill-opacity:1;fill-rule:nonzero;stroke:none"
       id="path4196"
       inkscape:connector-curvature="0" />
    <path
       d="m 129.90321,987.28033 0.585,0 0,-0.0725 -0.585,0 0,0.0725 z"
       style="fill:#231f20;fill-opacity:1;fill-rule:nonzero;stroke:none"
       id="path4198"
       inkscape:connector-curvature="0" />
    <path
       d="m 129.90321,987.20783 93.65875,0 0,-2.6325 -93.65875,0 0,2.6325 z"
       style="fill:#231f20;fill-opacity:1;fill-rule:nonzero;stroke:none"
       id="path4200"
       inkscape:connector-curvature="0" />
    <path
       d="m 223.56196,987.28033 0.51125,0 0,-0.0725 -0.51125,0 0,0.0725 z"
       style="fill:#231f20;fill-opacity:1;fill-rule:nonzero;stroke:none"
       id="path4202"
       inkscape:connector-curvature="0" />
    <path
       d="m 223.56196,987.20783 74.1375,0 0,-2.6325 -74.1375,0 0,2.6325 z"
       style="fill:#231f20;fill-opacity:1;fill-rule:nonzero;stroke:none"
       id="path4204"
       inkscape:connector-curvature="0" />
    <path
       d="m 297.69946,987.28033 0.585,0 0,-2.705 -0.585,0 0,2.705 z"
       style="fill:#231f20;fill-opacity:1;fill-rule:nonzero;stroke:none"
       id="path4206"
       inkscape:connector-curvature="0" />
    <path
       d="m 8.2407143,999.49033 0.585,0 0,-12.21 -0.585,0 0,12.21 z"
       style="fill:#231f20;fill-opacity:1;fill-rule:nonzero;stroke:none"
       id="path4208"
       inkscape:connector-curvature="0" />
    <path
       d="m 87.130714,999.49033 0.585,0 0,-12.21 -0.585,0 0,12.21 z"
       style="fill:#231f20;fill-opacity:1;fill-rule:nonzero;stroke:none"
       id="path4210"
       inkscape:connector-curvature="0" />
    <path
       d="m 129.90321,999.49033 0.585,0 0,-12.21 -0.585,0 0,12.21 z"
       style="fill:#231f20;fill-opacity:1;fill-rule:nonzero;stroke:none"
       id="path4212"
       inkscape:connector-curvature="0" />
    <path
       d="m 223.56196,999.49033 0.51125,0 0,-12.21 -0.51125,0 0,12.21 z"
       style="fill:#231f20;fill-opacity:1;fill-rule:nonzero;stroke:none"
       id="path4214"
       inkscape:connector-curvature="0" />
    <path
       d="m 297.69946,999.49033 0.585,0 0,-12.21 -0.585,0 0,12.21 z"
       style="fill:#231f20;fill-opacity:1;fill-rule:nonzero;stroke:none"
       id="path4216"
       inkscape:connector-curvature="0" />
    <text
       y="1009.7266"
       x="93.857216"
       style="font-variant:normal;font-weight:normal;font-size:10.66550064px;font-family:'Times New Roman';-inkscape-font-specification:TimesNewRomanPSMT;writing-mode:lr-tb;fill:#231f20;fill-opacity:1;fill-rule:nonzero;stroke:none"
       id="text4218">
      <tspan
         x="93.857216 100.97857 104.53764 113.96594 151.61942 156.95964 159.63348 164.97369 170.31392 175.65413 180.99434 185.73729 191.7601 197.10031 202.44054 235.48758 240.82779 243.50165 248.84186 254.18207 259.52228 264.86252 269.60547 275.52802 280.86823 286.20844"
         y="1009.7266"
         sodipodi:role="line"
         id="tspan4220">CIM 3.7037e+07 3.9063e+12</tspan>
    </text>
    <path
       d="m 8.2407143,1000.0753 0.585,0 0,-0.58497 -0.585,0 0,0.58497 z"
       style="fill:#231f20;fill-opacity:1;fill-rule:nonzero;stroke:none"
       id="path4222"
       inkscape:connector-curvature="0" />
    <path
       d="m 87.130714,1000.0753 211.153746,0 0,-0.58497 -211.153746,0 0,0.58497 z"
       style="fill:#231f20;fill-opacity:1;fill-rule:nonzero;stroke:none"
       id="path4224"
       inkscape:connector-curvature="0" />
    <path
       d="m 8.2407143,1012.3591 0.585,0 0,-12.2825 -0.585,0 0,12.2825 z"
       style="fill:#231f20;fill-opacity:1;fill-rule:nonzero;stroke:none"
       id="path4226"
       inkscape:connector-curvature="0" />
    <path
       d="m 87.130714,1012.3591 0.585,0 0,-12.2825 -0.585,0 0,12.2825 z"
       style="fill:#231f20;fill-opacity:1;fill-rule:nonzero;stroke:none"
       id="path4228"
       inkscape:connector-curvature="0" />
    <path
       d="m 129.90321,1012.3591 0.585,0 0,-12.2825 -0.585,0 0,12.2825 z"
       style="fill:#231f20;fill-opacity:1;fill-rule:nonzero;stroke:none"
       id="path4230"
       inkscape:connector-curvature="0" />
    <path
       d="m 223.56196,1012.3591 0.51125,0 0,-12.2825 -0.51125,0 0,12.2825 z"
       style="fill:#231f20;fill-opacity:1;fill-rule:nonzero;stroke:none"
       id="path4232"
       inkscape:connector-curvature="0" />
    <path
       d="m 297.69946,1012.3591 0.585,0 0,-12.2825 -0.585,0 0,12.2825 z"
       style="fill:#231f20;fill-opacity:1;fill-rule:nonzero;stroke:none"
       id="path4234"
       inkscape:connector-curvature="0" />
    <text
       y="1024.9342"
       x="14.893965"
       style="font-variant:normal;font-weight:bold;font-size:10.66550064px;font-family:'Times New Roman';-inkscape-font-specification:TimesNewRomanPS-BoldMT;writing-mode:lr-tb;fill:#231f20;fill-opacity:1;fill-rule:nonzero;stroke:none"
       id="text4236">
      <tspan
         x="14.893965 21.429783 26.184464 30.939144 34.448093 39.800037 44.554722 53.401752 58.7537 64.702911 69.457596 74.140823"
         y="1024.9342"
         sodipodi:role="line"
         id="tspan4238">Performance</tspan>
      <tspan
         x="14.893965 20.24378 24.996326 29.748873 35.013363"
         y="1037.2208"
         sodipodi:role="line"
         id="tspan4240">area</tspan>
    </text>
    <text
       y="1024.7209"
       x="93.861328"
       style="font-variant:normal;font-weight:normal;font-size:10.66550064px;font-family:'Times New Roman';-inkscape-font-specification:TimesNewRomanPSMT;writing-mode:lr-tb;fill:#231f20;fill-opacity:1;fill-rule:nonzero;stroke:none"
       id="text4242">
      <tspan
         x="93.861328 100.98268 106.3229 111.66311 117.00333 119.67716 151.62779 156.96802 159.64186 164.98207 170.3223 175.66251 181.00272 185.74567 191.76846 197.10869 202.44891 235.49596 240.83618 243.51003 248.85022 254.19044 259.53067 264.87088 269.61383 275.53638 280.87662 286.21683"
         y="1024.7209"
         sodipodi:role="line"
         id="tspan4244">Conv. 5.7312e+09 5.1118e+09</tspan>
    </text>
    <path
       d="m 8.2407143,1015.0641 0.585,0 0,-2.705 -0.585,0 0,2.705 z"
       style="fill:#231f20;fill-opacity:1;fill-rule:nonzero;stroke:none"
       id="path4246"
       inkscape:connector-curvature="0" />
    <path
       d="m 8.8257143,1014.9903 78.3049997,0 0,-2.6325 -78.3049997,0 0,2.6325 z"
       style="fill:#231f20;fill-opacity:1;fill-rule:nonzero;stroke:none"
       id="path4248"
       inkscape:connector-curvature="0" />
    <path
       d="m 87.130714,1015.0641 0.585,0 0,-0.073 -0.585,0 0,0.073 z"
       style="fill:#231f20;fill-opacity:1;fill-rule:nonzero;stroke:none"
       id="path4250"
       inkscape:connector-curvature="0" />
    <path
       d="m 87.130714,1014.9903 42.772496,0 0,-2.6325 -42.772496,0 0,2.6325 z"
       style="fill:#231f20;fill-opacity:1;fill-rule:nonzero;stroke:none"
       id="path4252"
       inkscape:connector-curvature="0" />
    <path
       d="m 129.90321,1015.0641 0.585,0 0,-0.073 -0.585,0 0,0.073 z"
       style="fill:#231f20;fill-opacity:1;fill-rule:nonzero;stroke:none"
       id="path4254"
       inkscape:connector-curvature="0" />
    <path
       d="m 129.90321,1014.9903 93.65875,0 0,-2.6325 -93.65875,0 0,2.6325 z"
       style="fill:#231f20;fill-opacity:1;fill-rule:nonzero;stroke:none"
       id="path4256"
       inkscape:connector-curvature="0" />
    <path
       d="m 223.56196,1015.0641 0.51125,0 0,-0.073 -0.51125,0 0,0.073 z"
       style="fill:#231f20;fill-opacity:1;fill-rule:nonzero;stroke:none"
       id="path4258"
       inkscape:connector-curvature="0" />
    <path
       d="m 223.56196,1014.9903 74.1375,0 0,-2.6325 -74.1375,0 0,2.6325 z"
       style="fill:#231f20;fill-opacity:1;fill-rule:nonzero;stroke:none"
       id="path4260"
       inkscape:connector-curvature="0" />
    <path
       d="m 297.69946,1015.0641 0.585,0 0,-2.705 -0.585,0 0,2.705 z"
       style="fill:#231f20;fill-opacity:1;fill-rule:nonzero;stroke:none"
       id="path4262"
       inkscape:connector-curvature="0" />
    <path
       d="m 8.2407143,1027.3466 0.585,0 0,-12.2838 -0.585,0 0,12.2838 z"
       style="fill:#231f20;fill-opacity:1;fill-rule:nonzero;stroke:none"
       id="path4264"
       inkscape:connector-curvature="0" />
    <path
       d="m 87.130714,1027.3466 0.585,0 0,-12.2838 -0.585,0 0,12.2838 z"
       style="fill:#231f20;fill-opacity:1;fill-rule:nonzero;stroke:none"
       id="path4266"
       inkscape:connector-curvature="0" />
    <path
       d="m 129.90321,1027.3466 0.585,0 0,-12.2838 -0.585,0 0,12.2838 z"
       style="fill:#231f20;fill-opacity:1;fill-rule:nonzero;stroke:none"
       id="path4268"
       inkscape:connector-curvature="0" />
    <path
       d="m 223.56196,1027.3466 0.51125,0 0,-12.2838 -0.51125,0 0,12.2838 z"
       style="fill:#231f20;fill-opacity:1;fill-rule:nonzero;stroke:none"
       id="path4270"
       inkscape:connector-curvature="0" />
    <path
       d="m 297.69946,1027.3466 0.585,0 0,-12.2838 -0.585,0 0,12.2838 z"
       style="fill:#231f20;fill-opacity:1;fill-rule:nonzero;stroke:none"
       id="path4272"
       inkscape:connector-curvature="0" />
    <text
       y="1037.583"
       x="93.857216"
       style="font-variant:normal;font-weight:normal;font-size:10.66550064px;font-family:'Times New Roman';-inkscape-font-specification:TimesNewRomanPSMT;writing-mode:lr-tb;fill:#231f20;fill-opacity:1;fill-rule:nonzero;stroke:none"
       id="text4274">
      <tspan
         x="93.857216 100.97857 104.53764 113.96594 151.61942 156.95964 159.63348 164.97369 170.31392 175.65413 180.99434 185.73729 191.7601 197.10031 202.44054 235.48758 240.82779 243.50165 248.84186 254.18207 259.52228 264.86252 269.60547 275.52802 280.86823 286.20844"
         y="1037.583"
         sodipodi:role="line"
         id="tspan4276">CIM 5.1118e+09 4.9164e+12</tspan>
    </text>
    <path
       d="m 8.2407143,1027.8591 0.585,0 0,-0.5113 -0.585,0 0,0.5113 z"
       style="fill:#231f20;fill-opacity:1;fill-rule:nonzero;stroke:none"
       id="path4278"
       inkscape:connector-curvature="0" />
    <path
       d="m 87.130714,1027.8591 211.153746,0 0,-0.5113 -211.153746,0 0,0.5113 z"
       style="fill:#231f20;fill-opacity:1;fill-rule:nonzero;stroke:none"
       id="path4280"
       inkscape:connector-curvature="0" />
    <path
       d="m 8.2407143,1040.2153 0.585,0 0,-12.3562 -0.585,0 0,12.3562 z"
       style="fill:#231f20;fill-opacity:1;fill-rule:nonzero;stroke:none"
       id="path4282"
       inkscape:connector-curvature="0" />
    <path
       d="m 87.130714,1040.2153 0.585,0 0,-12.3562 -0.585,0 0,12.3562 z"
       style="fill:#231f20;fill-opacity:1;fill-rule:nonzero;stroke:none"
       id="path4284"
       inkscape:connector-curvature="0" />
    <path
       d="m 129.90321,1040.2153 0.585,0 0,-12.3562 -0.585,0 0,12.3562 z"
       style="fill:#231f20;fill-opacity:1;fill-rule:nonzero;stroke:none"
       id="path4286"
       inkscape:connector-curvature="0" />
    <path
       d="m 223.56196,1040.2153 0.51125,0 0,-12.3562 -0.51125,0 0,12.3562 z"
       style="fill:#231f20;fill-opacity:1;fill-rule:nonzero;stroke:none"
       id="path4288"
       inkscape:connector-curvature="0" />
    <path
       d="m 297.69946,1040.2153 0.585,0 0,-12.3562 -0.585,0 0,12.3562 z"
       style="fill:#231f20;fill-opacity:1;fill-rule:nonzero;stroke:none"
       id="path4290"
       inkscape:connector-curvature="0" />
    <path
       d="m 8.2407143,1042.8478 81.5224997,0 0,-2.6325 -81.5224997,0 0,2.6325 z"
       style="fill:#231f20;fill-opacity:1;fill-rule:nonzero;stroke:none"
       id="path4292"
       inkscape:connector-curvature="0" />
    <path
       d="m 87.715714,1042.8478 44.818746,0 0,-2.6325 -44.818746,0 0,2.6325 z"
       style="fill:#231f20;fill-opacity:1;fill-rule:nonzero;stroke:none"
       id="path4294"
       inkscape:connector-curvature="0" />
    <path
       d="m 130.48696,1042.8478 95.70625,0 0,-2.6325 -95.70625,0 0,2.6325 z"
       style="fill:#231f20;fill-opacity:1;fill-rule:nonzero;stroke:none"
       id="path4296"
       inkscape:connector-curvature="0" />
    <path
       d="m 224.07321,1042.8478 76.2575,0 0,-2.6325 -76.2575,0 0,2.6325 z"
       style="fill:#231f20;fill-opacity:1;fill-rule:nonzero;stroke:none"
       id="path4298"
       inkscape:connector-curvature="0" />
  </g>
</svg>
